<?xml version="1.0" encoding="UTF-8" standalone="no"?>
<!DOCTYPE svg PUBLIC "-//W3C//DTD SVG 1.1//EN"
 "http://www.w3.org/Graphics/SVG/1.1/DTD/svg11.dtd">
<!-- Generated by graphviz version 2.40.1 (20161225.0304)
 -->
<!-- Title: dependencies Pages: 1 -->
<svg width="761pt" height="211pt"
 viewBox="0.00 0.00 761.00 211.00" xmlns="http://www.w3.org/2000/svg" xmlns:xlink="http://www.w3.org/1999/xlink">
<g id="graph0" class="graph" transform="scale(1 1) rotate(0) translate(4 207)">
<title>dependencies</title>
<polygon fill="#ffffff" stroke="transparent" points="-4,4 -4,-207 757,-207 757,4 -4,4"/>
<text text-anchor="start" x="355.5091" y="-42.4" font-family="sans-serif" font-weight="bold" font-size="14.00" fill="#000000">Legend</text>
<polygon fill="#ffffb3" stroke="transparent" points="142.5,-10 142.5,-30 162.5,-30 162.5,-10 142.5,-10"/>
<text text-anchor="start" x="166.129" y="-15.4" font-family="sans-serif" font-size="14.00" fill="#000000"> &#160;Declarations</text>
<polygon fill="#8dd3c7" stroke="transparent" points="255.5,-10 255.5,-30 275.5,-30 275.5,-10 255.5,-10"/>
<text text-anchor="start" x="279.2251" y="-15.4" font-family="sans-serif" font-size="14.00" fill="#000000"> &#160;Module</text>
<polygon fill="#80b1d3" stroke="transparent" points="341.5,-10 341.5,-30 361.5,-30 361.5,-10 341.5,-10"/>
<text text-anchor="start" x="365.2812" y="-15.4" font-family="sans-serif" font-size="14.00" fill="#000000"> &#160;Bootstrap</text>
<polygon fill="#fdb462" stroke="transparent" points="438.5,-10 438.5,-30 458.5,-30 458.5,-10 438.5,-10"/>
<text text-anchor="start" x="462.1732" y="-15.4" font-family="sans-serif" font-size="14.00" fill="#000000"> &#160;Providers</text>
<polygon fill="#fb8072" stroke="transparent" points="534.5,-10 534.5,-30 554.5,-30 554.5,-10 534.5,-10"/>
<text text-anchor="start" x="558.2258" y="-15.4" font-family="sans-serif" font-size="14.00" fill="#000000"> &#160;Exports</text>
<g id="clust1" class="cluster">
<title>cluster_HomeModule</title>
<polygon fill="none" stroke="#000000" stroke-dasharray="1,5" points="8,-70 8,-195 745,-195 745,-70 8,-70"/>
</g>
<g id="clust2" class="cluster">
<title>cluster_HomeModule_declarations</title>
<polygon fill="none" stroke="#000000" points="138,-78 138,-130 737,-130 737,-78 138,-78"/>
</g>
<g id="clust7" class="cluster">
<title>cluster_HomeModule_imports</title>
<polygon fill="none" stroke="#000000" points="16,-78 16,-130 130,-130 130,-78 16,-78"/>
</g>
<!-- CallbackComponent -->
<g id="node1" class="node">
<title>CallbackComponent</title>
<polygon fill="#ffffb3" stroke="#000000" points="728.594,-122 597.406,-122 597.406,-86 728.594,-86 728.594,-122"/>
<text text-anchor="middle" x="663" y="-99.8" font-family="Times,serif" font-size="14.00" fill="#000000">CallbackComponent</text>
</g>
<!-- HomeModule -->
<g id="node5" class="node">
<title>HomeModule</title>
<polygon fill="#8dd3c7" stroke="#000000" points="388.7619,-187 385.7619,-191 364.7619,-191 361.7619,-187 295.2381,-187 295.2381,-151 388.7619,-151 388.7619,-187"/>
<text text-anchor="middle" x="342" y="-164.8" font-family="Times,serif" font-size="14.00" fill="#000000">HomeModule</text>
</g>
<!-- CallbackComponent&#45;&gt;HomeModule -->
<g id="edge1" class="edge">
<title>CallbackComponent&#45;&gt;HomeModule</title>
<path fill="none" stroke="#000000" d="M663,-122.2843C663,-143.3211 663,-175 663,-175 663,-175 399.0199,-175 399.0199,-175"/>
<polygon fill="#000000" stroke="#000000" points="399.02,-171.5001 389.0199,-175 399.0199,-178.5001 399.02,-171.5001"/>
</g>
<!-- HomeLayoutComponent -->
<g id="node2" class="node">
<title>HomeLayoutComponent</title>
<polygon fill="#ffffb3" stroke="#000000" points="579.7021,-122 424.2979,-122 424.2979,-86 579.7021,-86 579.7021,-122"/>
<text text-anchor="middle" x="502" y="-99.8" font-family="Times,serif" font-size="14.00" fill="#000000">HomeLayoutComponent</text>
</g>
<!-- HomeLayoutComponent&#45;&gt;HomeModule -->
<g id="edge2" class="edge">
<title>HomeLayoutComponent&#45;&gt;HomeModule</title>
<path fill="none" stroke="#000000" d="M502,-122.0225C502,-139.3734 502,-163 502,-163 502,-163 399.1399,-163 399.1399,-163"/>
<polygon fill="#000000" stroke="#000000" points="399.1399,-159.5001 389.1399,-163 399.1399,-166.5001 399.1399,-159.5001"/>
</g>
<!-- LandingComponent -->
<g id="node3" class="node">
<title>LandingComponent</title>
<polygon fill="#ffffb3" stroke="#000000" points="405.9902,-122 278.0098,-122 278.0098,-86 405.9902,-86 405.9902,-122"/>
<text text-anchor="middle" x="342" y="-99.8" font-family="Times,serif" font-size="14.00" fill="#000000">LandingComponent</text>
</g>
<!-- LandingComponent&#45;&gt;HomeModule -->
<g id="edge3" class="edge">
<title>LandingComponent&#45;&gt;HomeModule</title>
<path fill="none" stroke="#000000" d="M342,-122.1061C342,-122.1061 342,-140.991 342,-140.991"/>
<polygon fill="#000000" stroke="#000000" points="338.5001,-140.9909 342,-150.991 345.5001,-140.991 338.5001,-140.9909"/>
</g>
<!-- LoginComponent -->
<g id="node4" class="node">
<title>LoginComponent</title>
<polygon fill="#ffffb3" stroke="#000000" points="260.2758,-122 145.7242,-122 145.7242,-86 260.2758,-86 260.2758,-122"/>
<text text-anchor="middle" x="203" y="-99.8" font-family="Times,serif" font-size="14.00" fill="#000000">LoginComponent</text>
</g>
<!-- LoginComponent&#45;&gt;HomeModule -->
<g id="edge4" class="edge">
<title>LoginComponent&#45;&gt;HomeModule</title>
<path fill="none" stroke="#000000" d="M203,-122.0225C203,-139.3734 203,-163 203,-163 203,-163 284.9409,-163 284.9409,-163"/>
<polygon fill="#000000" stroke="#000000" points="284.941,-166.5001 294.9409,-163 284.9409,-159.5001 284.941,-166.5001"/>
</g>
<!-- SharedModule -->
<g id="node6" class="node">
<title>SharedModule</title>
<polygon fill="#8dd3c7" stroke="#000000" points="122.4231,-122 119.4231,-126 98.4231,-126 95.4231,-122 23.5769,-122 23.5769,-86 122.4231,-86 122.4231,-122"/>
<text text-anchor="middle" x="73" y="-99.8" font-family="Times,serif" font-size="14.00" fill="#000000">SharedModule</text>
</g>
<!-- SharedModule&#45;&gt;HomeModule -->
<g id="edge5" class="edge">
<title>SharedModule&#45;&gt;HomeModule</title>
<path fill="none" stroke="#000000" d="M73,-122.2843C73,-143.3211 73,-175 73,-175 73,-175 285.1438,-175 285.1438,-175"/>
<polygon fill="#000000" stroke="#000000" points="285.1438,-178.5001 295.1438,-175 285.1437,-171.5001 285.1438,-178.5001"/>
</g>
</g>
</svg>
