<?xml version="1.0" encoding="UTF-8" standalone="no"?>
<!DOCTYPE svg PUBLIC "-//W3C//DTD SVG 1.1//EN"
 "http://www.w3.org/Graphics/SVG/1.1/DTD/svg11.dtd">
<!-- Generated by graphviz version 2.40.1 (20161225.0304)
 -->
<!-- Title: dependencies Pages: 1 -->
<svg width="790pt" height="211pt"
 viewBox="0.00 0.00 790.00 211.00" xmlns="http://www.w3.org/2000/svg" xmlns:xlink="http://www.w3.org/1999/xlink">
<g id="graph0" class="graph" transform="scale(1 1) rotate(0) translate(4 207)">
<title>dependencies</title>
<polygon fill="#ffffff" stroke="transparent" points="-4,4 -4,-207 786,-207 786,4 -4,4"/>
<text text-anchor="start" x="370.0091" y="-42.4" font-family="sans-serif" font-weight="bold" font-size="14.00" fill="#000000">Legend</text>
<polygon fill="#ffffb3" stroke="transparent" points="157,-10 157,-30 177,-30 177,-10 157,-10"/>
<text text-anchor="start" x="180.629" y="-15.4" font-family="sans-serif" font-size="14.00" fill="#000000"> &#160;Declarations</text>
<polygon fill="#8dd3c7" stroke="transparent" points="270,-10 270,-30 290,-30 290,-10 270,-10"/>
<text text-anchor="start" x="293.7251" y="-15.4" font-family="sans-serif" font-size="14.00" fill="#000000"> &#160;Module</text>
<polygon fill="#80b1d3" stroke="transparent" points="356,-10 356,-30 376,-30 376,-10 356,-10"/>
<text text-anchor="start" x="379.7812" y="-15.4" font-family="sans-serif" font-size="14.00" fill="#000000"> &#160;Bootstrap</text>
<polygon fill="#fdb462" stroke="transparent" points="453,-10 453,-30 473,-30 473,-10 453,-10"/>
<text text-anchor="start" x="476.6732" y="-15.4" font-family="sans-serif" font-size="14.00" fill="#000000"> &#160;Providers</text>
<polygon fill="#fb8072" stroke="transparent" points="549,-10 549,-30 569,-30 569,-10 549,-10"/>
<text text-anchor="start" x="572.7258" y="-15.4" font-family="sans-serif" font-size="14.00" fill="#000000"> &#160;Exports</text>
<g id="clust1" class="cluster">
<title>cluster_DashboardModule</title>
<polygon fill="none" stroke="#000000" stroke-dasharray="1,5" points="8,-70 8,-195 774,-195 774,-70 8,-70"/>
</g>
<g id="clust2" class="cluster">
<title>cluster_DashboardModule_declarations</title>
<polygon fill="none" stroke="#000000" points="138,-78 138,-130 766,-130 766,-78 138,-78"/>
</g>
<g id="clust7" class="cluster">
<title>cluster_DashboardModule_imports</title>
<polygon fill="none" stroke="#000000" points="16,-78 16,-130 130,-130 130,-78 16,-78"/>
</g>
<!-- DashboardLayoutComponent -->
<g id="node1" class="node">
<title>DashboardLayoutComponent</title>
<polygon fill="#ffffb3" stroke="#000000" points="757.6316,-122 576.3684,-122 576.3684,-86 757.6316,-86 757.6316,-122"/>
<text text-anchor="middle" x="667" y="-99.8" font-family="Times,serif" font-size="14.00" fill="#000000">DashboardLayoutComponent</text>
</g>
<!-- DashboardModule -->
<g id="node5" class="node">
<title>DashboardModule</title>
<polygon fill="#8dd3c7" stroke="#000000" points="421.191,-187 418.191,-191 397.191,-191 394.191,-187 300.809,-187 300.809,-151 421.191,-151 421.191,-187"/>
<text text-anchor="middle" x="361" y="-164.8" font-family="Times,serif" font-size="14.00" fill="#000000">DashboardModule</text>
</g>
<!-- DashboardLayoutComponent&#45;&gt;DashboardModule -->
<g id="edge1" class="edge">
<title>DashboardLayoutComponent&#45;&gt;DashboardModule</title>
<path fill="none" stroke="#000000" d="M667,-122.2843C667,-143.3211 667,-175 667,-175 667,-175 431.4558,-175 431.4558,-175"/>
<polygon fill="#000000" stroke="#000000" points="431.4558,-171.5001 421.4558,-175 431.4557,-178.5001 431.4558,-171.5001"/>
</g>
<!-- FooterComponent -->
<g id="node2" class="node">
<title>FooterComponent</title>
<polygon fill="#ffffb3" stroke="#000000" points="557.8809,-122 440.1191,-122 440.1191,-86 557.8809,-86 557.8809,-122"/>
<text text-anchor="middle" x="499" y="-99.8" font-family="Times,serif" font-size="14.00" fill="#000000">FooterComponent</text>
</g>
<!-- FooterComponent&#45;&gt;DashboardModule -->
<g id="edge2" class="edge">
<title>FooterComponent&#45;&gt;DashboardModule</title>
<path fill="none" stroke="#000000" d="M499,-122.0225C499,-139.3734 499,-163 499,-163 499,-163 431.1274,-163 431.1274,-163"/>
<polygon fill="#000000" stroke="#000000" points="431.1274,-159.5001 421.1274,-163 431.1273,-166.5001 431.1274,-159.5001"/>
</g>
<!-- HeaderComponent -->
<g id="node3" class="node">
<title>HeaderComponent</title>
<polygon fill="#ffffb3" stroke="#000000" points="421.7437,-122 300.2563,-122 300.2563,-86 421.7437,-86 421.7437,-122"/>
<text text-anchor="middle" x="361" y="-99.8" font-family="Times,serif" font-size="14.00" fill="#000000">HeaderComponent</text>
</g>
<!-- HeaderComponent&#45;&gt;DashboardModule -->
<g id="edge3" class="edge">
<title>HeaderComponent&#45;&gt;DashboardModule</title>
<path fill="none" stroke="#000000" d="M361,-122.1061C361,-122.1061 361,-140.991 361,-140.991"/>
<polygon fill="#000000" stroke="#000000" points="357.5001,-140.9909 361,-150.991 364.5001,-140.991 357.5001,-140.9909"/>
</g>
<!-- OverviewComponent -->
<g id="node4" class="node">
<title>OverviewComponent</title>
<polygon fill="#ffffb3" stroke="#000000" points="282.0268,-122 145.9732,-122 145.9732,-86 282.0268,-86 282.0268,-122"/>
<text text-anchor="middle" x="214" y="-99.8" font-family="Times,serif" font-size="14.00" fill="#000000">OverviewComponent</text>
</g>
<!-- OverviewComponent&#45;&gt;DashboardModule -->
<g id="edge4" class="edge">
<title>OverviewComponent&#45;&gt;DashboardModule</title>
<path fill="none" stroke="#000000" d="M214,-122.0225C214,-139.3734 214,-163 214,-163 214,-163 290.7853,-163 290.7853,-163"/>
<polygon fill="#000000" stroke="#000000" points="290.7854,-166.5001 300.7853,-163 290.7853,-159.5001 290.7854,-166.5001"/>
</g>
<!-- SharedModule -->
<g id="node6" class="node">
<title>SharedModule</title>
<polygon fill="#8dd3c7" stroke="#000000" points="122.4231,-122 119.4231,-126 98.4231,-126 95.4231,-122 23.5769,-122 23.5769,-86 122.4231,-86 122.4231,-122"/>
<text text-anchor="middle" x="73" y="-99.8" font-family="Times,serif" font-size="14.00" fill="#000000">SharedModule</text>
</g>
<!-- SharedModule&#45;&gt;DashboardModule -->
<g id="edge5" class="edge">
<title>SharedModule&#45;&gt;DashboardModule</title>
<path fill="none" stroke="#000000" d="M73,-122.2843C73,-143.3211 73,-175 73,-175 73,-175 290.6258,-175 290.6258,-175"/>
<polygon fill="#000000" stroke="#000000" points="290.6258,-178.5001 300.6258,-175 290.6257,-171.5001 290.6258,-178.5001"/>
</g>
</g>
</svg>
