<?xml version="1.0" encoding="UTF-8" standalone="no"?>
<!DOCTYPE svg PUBLIC "-//W3C//DTD SVG 1.1//EN"
 "http://www.w3.org/Graphics/SVG/1.1/DTD/svg11.dtd">
<!-- Generated by graphviz version 2.40.1 (20161225.0304)
 -->
<!-- Title: dependencies Pages: 1 -->
<svg width="2819pt" height="360pt"
 viewBox="0.00 0.00 2819.00 360.00" xmlns="http://www.w3.org/2000/svg" xmlns:xlink="http://www.w3.org/1999/xlink">
<g id="graph0" class="graph" transform="scale(1 1) rotate(0) translate(4 356)">
<title>dependencies</title>
<polygon fill="#ffffff" stroke="transparent" points="-4,4 -4,-356 2815,-356 2815,4 -4,4"/>
<text text-anchor="start" x="1384.5091" y="-42.4" font-family="sans-serif" font-weight="bold" font-size="14.00" fill="#000000">Legend</text>
<polygon fill="#ffffb3" stroke="transparent" points="1171.5,-10 1171.5,-30 1191.5,-30 1191.5,-10 1171.5,-10"/>
<text text-anchor="start" x="1195.129" y="-15.4" font-family="sans-serif" font-size="14.00" fill="#000000"> &#160;Declarations</text>
<polygon fill="#8dd3c7" stroke="transparent" points="1284.5,-10 1284.5,-30 1304.5,-30 1304.5,-10 1284.5,-10"/>
<text text-anchor="start" x="1308.2251" y="-15.4" font-family="sans-serif" font-size="14.00" fill="#000000"> &#160;Module</text>
<polygon fill="#80b1d3" stroke="transparent" points="1370.5,-10 1370.5,-30 1390.5,-30 1390.5,-10 1370.5,-10"/>
<text text-anchor="start" x="1394.2812" y="-15.4" font-family="sans-serif" font-size="14.00" fill="#000000"> &#160;Bootstrap</text>
<polygon fill="#fdb462" stroke="transparent" points="1467.5,-10 1467.5,-30 1487.5,-30 1487.5,-10 1467.5,-10"/>
<text text-anchor="start" x="1491.1732" y="-15.4" font-family="sans-serif" font-size="14.00" fill="#000000"> &#160;Providers</text>
<polygon fill="#fb8072" stroke="transparent" points="1563.5,-10 1563.5,-30 1583.5,-30 1583.5,-10 1563.5,-10"/>
<text text-anchor="start" x="1587.2258" y="-15.4" font-family="sans-serif" font-size="14.00" fill="#000000"> &#160;Exports</text>
<g id="clust1" class="cluster">
<title>cluster_AdminModule</title>
<polygon fill="none" stroke="#000000" stroke-dasharray="1,5" points="8,-70 8,-206 458,-206 458,-70 8,-70"/>
</g>
<g id="clust2" class="cluster">
<title>cluster_AdminModule_declarations</title>
<polygon fill="none" stroke="#000000" points="16,-78 16,-130 328,-130 328,-78 16,-78"/>
</g>
<g id="clust5" class="cluster">
<title>cluster_AdminModule_imports</title>
<polygon fill="none" stroke="#000000" points="336,-78 336,-130 450,-130 450,-78 336,-78"/>
</g>
<g id="clust9" class="cluster">
<title>cluster_AppModule</title>
<polygon fill="none" stroke="#000000" stroke-dasharray="1,5" points="2132,-146 2132,-344 2625,-344 2625,-146 2132,-146"/>
</g>
<g id="clust10" class="cluster">
<title>cluster_AppModule_declarations</title>
<polygon fill="none" stroke="#000000" points="2495,-154 2495,-206 2617,-206 2617,-154 2495,-154"/>
</g>
<g id="clust12" class="cluster">
<title>cluster_AppModule_imports</title>
<polygon fill="none" stroke="#000000" points="2278,-154 2278,-206 2487,-206 2487,-154 2278,-154"/>
</g>
<g id="clust14" class="cluster">
<title>cluster_AppModule_bootstrap</title>
<polygon fill="none" stroke="#000000" points="2321,-284 2321,-336 2445,-336 2445,-284 2321,-284"/>
</g>
<g id="clust15" class="cluster">
<title>cluster_AppModule_providers</title>
<polygon fill="none" stroke="#000000" points="2140,-154 2140,-206 2270,-206 2270,-154 2140,-154"/>
</g>
<g id="clust16" class="cluster">
<title>cluster_BlogModule</title>
<polygon fill="none" stroke="#000000" stroke-dasharray="1,5" points="982,-70 982,-206 1501,-206 1501,-70 982,-70"/>
</g>
<g id="clust17" class="cluster">
<title>cluster_BlogModule_declarations</title>
<polygon fill="none" stroke="#000000" points="990,-78 990,-130 1493,-130 1493,-78 990,-78"/>
</g>
<g id="clust25" class="cluster">
<title>cluster_CoreModule</title>
<polygon fill="none" stroke="#000000" stroke-dasharray="1,5" points="2346,-70 2346,-138 2526,-138 2526,-70 2346,-70"/>
</g>
<g id="clust30" class="cluster">
<title>cluster_CoreModule_providers</title>
<polygon fill="none" stroke="#000000" points="2354,-78 2354,-130 2518,-130 2518,-78 2354,-78"/>
</g>
<g id="clust31" class="cluster">
<title>cluster_DashboardModule</title>
<polygon fill="none" stroke="#000000" stroke-dasharray="1,5" points="466,-70 466,-206 974,-206 974,-70 466,-70"/>
</g>
<g id="clust32" class="cluster">
<title>cluster_DashboardModule_declarations</title>
<polygon fill="none" stroke="#000000" points="474,-78 474,-130 966,-130 966,-78 474,-78"/>
</g>
<g id="clust47" class="cluster">
<title>cluster_HomeModule</title>
<polygon fill="none" stroke="#000000" stroke-dasharray="1,5" points="1509,-70 1509,-206 2124,-206 2124,-70 1509,-70"/>
</g>
<g id="clust48" class="cluster">
<title>cluster_HomeModule_declarations</title>
<polygon fill="none" stroke="#000000" points="1517,-78 1517,-130 2116,-130 2116,-78 1517,-78"/>
</g>
<g id="clust57" class="cluster">
<title>cluster_NotFoundModule</title>
<polygon fill="none" stroke="#000000" stroke-dasharray="1,5" points="2633,-70 2633,-206 2803,-206 2803,-70 2633,-70"/>
</g>
<g id="clust58" class="cluster">
<title>cluster_NotFoundModule_declarations</title>
<polygon fill="none" stroke="#000000" points="2641,-78 2641,-130 2795,-130 2795,-78 2641,-78"/>
</g>
<!-- AdminLayoutComponent -->
<g id="node1" class="node">
<title>AdminLayoutComponent</title>
<polygon fill="#ffffb3" stroke="#000000" points="183.878,-122 24.122,-122 24.122,-86 183.878,-86 183.878,-122"/>
<text text-anchor="middle" x="104" y="-99.8" font-family="Times,serif" font-size="14.00" fill="#000000">AdminLayoutComponent</text>
</g>
<!-- AdminModule -->
<g id="node3" class="node">
<title>AdminModule</title>
<polygon fill="#8dd3c7" stroke="#000000" points="310.4386,-198 307.4386,-202 286.4386,-202 283.4386,-198 211.5614,-198 211.5614,-162 310.4386,-162 310.4386,-198"/>
<text text-anchor="middle" x="261" y="-175.8" font-family="Times,serif" font-size="14.00" fill="#000000">AdminModule</text>
</g>
<!-- AdminLayoutComponent&#45;&gt;AdminModule -->
<g id="edge1" class="edge">
<title>AdminLayoutComponent&#45;&gt;AdminModule</title>
<path fill="none" stroke="#000000" d="M104,-122.0109C104,-144.4852 104,-180 104,-180 104,-180 201.755,-180 201.755,-180"/>
<polygon fill="#000000" stroke="#000000" points="201.755,-183.5001 211.755,-180 201.7549,-176.5001 201.755,-183.5001"/>
</g>
<!-- FooterComponent -->
<g id="node2" class="node">
<title>FooterComponent</title>
<polygon fill="#ffffb3" stroke="#000000" points="319.8809,-122 202.1191,-122 202.1191,-86 319.8809,-86 319.8809,-122"/>
<text text-anchor="middle" x="261" y="-99.8" font-family="Times,serif" font-size="14.00" fill="#000000">FooterComponent</text>
</g>
<!-- FooterComponent&#45;&gt;AdminModule -->
<g id="edge2" class="edge">
<title>FooterComponent&#45;&gt;AdminModule</title>
<path fill="none" stroke="#000000" d="M261,-122.0109C261,-122.0109 261,-151.855 261,-151.855"/>
<polygon fill="#000000" stroke="#000000" points="257.5001,-151.8549 261,-161.855 264.5001,-151.855 257.5001,-151.8549"/>
</g>
<!-- DashboardModule -->
<g id="node19" class="node">
<title>DashboardModule</title>
<polygon fill="#8dd3c7" stroke="#000000" points="610.191,-198 607.191,-202 586.191,-202 583.191,-198 489.809,-198 489.809,-162 610.191,-162 610.191,-198"/>
<text text-anchor="middle" x="550" y="-175.8" font-family="Times,serif" font-size="14.00" fill="#000000">DashboardModule</text>
</g>
<!-- FooterComponent&#45;&gt;DashboardModule -->
<g id="edge15" class="edge">
<title>FooterComponent&#45;&gt;DashboardModule</title>
<path fill="none" stroke="#000000" d="M315.0796,-122.0263C315.0796,-146.9773 315.0796,-189 315.0796,-189 315.0796,-189 479.8072,-189 479.8072,-189"/>
<polygon fill="#000000" stroke="#000000" points="479.8073,-192.5001 489.8072,-189 479.8072,-185.5001 479.8073,-192.5001"/>
</g>
<!-- SharedModule -->
<g id="node4" class="node">
<title>SharedModule</title>
<polygon fill="#8dd3c7" stroke="#000000" points="442.4231,-122 439.4231,-126 418.4231,-126 415.4231,-122 343.5769,-122 343.5769,-86 442.4231,-86 442.4231,-122"/>
<text text-anchor="middle" x="393" y="-99.8" font-family="Times,serif" font-size="14.00" fill="#000000">SharedModule</text>
</g>
<!-- SharedModule&#45;&gt;AdminModule -->
<g id="edge3" class="edge">
<title>SharedModule&#45;&gt;AdminModule</title>
<path fill="none" stroke="#000000" d="M402.8422,-122.0109C402.8422,-144.4852 402.8422,-180 402.8422,-180 402.8422,-180 320.6095,-180 320.6095,-180"/>
<polygon fill="#000000" stroke="#000000" points="320.6096,-176.5001 310.6095,-180 320.6095,-183.5001 320.6096,-176.5001"/>
</g>
<!-- BlogModule -->
<g id="node14" class="node">
<title>BlogModule</title>
<polygon fill="#8dd3c7" stroke="#000000" points="1199.2773,-198 1196.2773,-202 1175.2773,-202 1172.2773,-198 1112.7227,-198 1112.7227,-162 1199.2773,-162 1199.2773,-198"/>
<text text-anchor="middle" x="1156" y="-175.8" font-family="Times,serif" font-size="14.00" fill="#000000">BlogModule</text>
</g>
<!-- SharedModule&#45;&gt;BlogModule -->
<g id="edge12" class="edge">
<title>SharedModule&#45;&gt;BlogModule</title>
<path fill="none" stroke="#000000" d="M363.4733,-122.0439C363.4733,-134.5633 363.4733,-149 363.4733,-149 363.4733,-149 1125.8125,-149 1125.8125,-149 1125.8125,-149 1125.8125,-151.9672 1125.8125,-151.9672"/>
<polygon fill="#000000" stroke="#000000" points="1122.3126,-151.9671 1125.8125,-161.9672 1129.3126,-151.9672 1122.3126,-151.9671"/>
</g>
<!-- SharedModule&#45;&gt;DashboardModule -->
<g id="edge18" class="edge">
<title>SharedModule&#45;&gt;DashboardModule</title>
<path fill="none" stroke="#000000" d="M422.5267,-122.308C422.5267,-142.1455 422.5267,-171 422.5267,-171 422.5267,-171 479.6231,-171 479.6231,-171"/>
<polygon fill="#000000" stroke="#000000" points="479.6231,-174.5001 489.6231,-171 479.623,-167.5001 479.6231,-174.5001"/>
</g>
<!-- HomeModule -->
<g id="node24" class="node">
<title>HomeModule</title>
<polygon fill="#8dd3c7" stroke="#000000" points="1810.7619,-198 1807.7619,-202 1786.7619,-202 1783.7619,-198 1717.2381,-198 1717.2381,-162 1810.7619,-162 1810.7619,-198"/>
<text text-anchor="middle" x="1764" y="-175.8" font-family="Times,serif" font-size="14.00" fill="#000000">HomeModule</text>
</g>
<!-- SharedModule&#45;&gt;HomeModule -->
<g id="edge23" class="edge">
<title>SharedModule&#45;&gt;HomeModule</title>
<path fill="none" stroke="#000000" d="M383.1578,-122.2434C383.1578,-129.4297 383.1578,-136 383.1578,-136 383.1578,-136 1748.3731,-136 1748.3731,-136 1748.3731,-136 1748.3731,-151.8495 1748.3731,-151.8495"/>
<polygon fill="#000000" stroke="#000000" points="1744.8732,-151.8494 1748.3731,-161.8495 1751.8732,-151.8495 1744.8732,-151.8494"/>
</g>
<!-- AppComponent -->
<g id="node5" class="node">
<title>AppComponent</title>
<polygon fill="#ffffb3" stroke="#000000" points="2608.9399,-198 2503.0601,-198 2503.0601,-162 2608.9399,-162 2608.9399,-198"/>
<text text-anchor="middle" x="2556" y="-175.8" font-family="Times,serif" font-size="14.00" fill="#000000">AppComponent</text>
</g>
<!-- AppModule -->
<g id="node6" class="node">
<title>AppModule</title>
<polygon fill="#8dd3c7" stroke="#000000" points="2424.6571,-263 2421.6571,-267 2400.6571,-267 2397.6571,-263 2341.3429,-263 2341.3429,-227 2424.6571,-227 2424.6571,-263"/>
<text text-anchor="middle" x="2383" y="-240.8" font-family="Times,serif" font-size="14.00" fill="#000000">AppModule</text>
</g>
<!-- AppComponent&#45;&gt;AppModule -->
<g id="edge4" class="edge">
<title>AppComponent&#45;&gt;AppModule</title>
<path fill="none" stroke="#000000" d="M2556,-198.1061C2556,-217.3391 2556,-245 2556,-245 2556,-245 2434.8785,-245 2434.8785,-245"/>
<polygon fill="#000000" stroke="#000000" points="2434.8785,-241.5001 2424.8785,-245 2434.8784,-248.5001 2434.8785,-241.5001"/>
</g>
<!-- AppComponent  -->
<g id="node8" class="node">
<title>AppComponent </title>
<polygon fill="#80b1d3" stroke="#000000" points="2437.439,-328 2328.561,-328 2328.561,-292 2437.439,-292 2437.439,-328"/>
<text text-anchor="middle" x="2383" y="-305.8" font-family="Times,serif" font-size="14.00" fill="#000000">AppComponent </text>
</g>
<!-- AppModule&#45;&gt;AppComponent  -->
<g id="edge6" class="edge">
<title>AppModule&#45;&gt;AppComponent </title>
<path fill="none" stroke="#000000" stroke-dasharray="1,5" d="M2383,-263.1061C2383,-263.1061 2383,-281.991 2383,-281.991"/>
<polygon fill="#000000" stroke="#000000" points="2379.5001,-281.9909 2383,-291.991 2386.5001,-281.991 2379.5001,-281.9909"/>
</g>
<!-- CoreModule -->
<g id="node7" class="node">
<title>CoreModule</title>
<polygon fill="#8dd3c7" stroke="#000000" points="2479.2619,-198 2476.2619,-202 2455.2619,-202 2452.2619,-198 2392.7381,-198 2392.7381,-162 2479.2619,-162 2479.2619,-198"/>
<text text-anchor="middle" x="2436" y="-175.8" font-family="Times,serif" font-size="14.00" fill="#000000">CoreModule</text>
</g>
<!-- CoreModule&#45;&gt;AppModule -->
<g id="edge5" class="edge">
<title>CoreModule&#45;&gt;AppModule</title>
<path fill="none" stroke="#000000" d="M2408.7237,-198.1061C2408.7237,-198.1061 2408.7237,-216.991 2408.7237,-216.991"/>
<polygon fill="#000000" stroke="#000000" points="2405.2238,-216.9909 2408.7237,-226.991 2412.2238,-216.991 2405.2238,-216.9909"/>
</g>
<!-- EchoModule -->
<g id="node9" class="node">
<title>EchoModule</title>
<polygon fill="#8dd3c7" stroke="#000000" points="2374.3176,-198 2371.3176,-202 2350.3176,-202 2347.3176,-198 2285.6824,-198 2285.6824,-162 2374.3176,-162 2374.3176,-198"/>
<text text-anchor="middle" x="2330" y="-175.8" font-family="Times,serif" font-size="14.00" fill="#000000">EchoModule</text>
</g>
<!-- EchoModule&#45;&gt;AppModule -->
<g id="edge7" class="edge">
<title>EchoModule&#45;&gt;AppModule</title>
<path fill="none" stroke="#000000" d="M2357.6651,-198.1061C2357.6651,-198.1061 2357.6651,-216.991 2357.6651,-216.991"/>
<polygon fill="#000000" stroke="#000000" points="2354.1652,-216.9909 2357.6651,-226.991 2361.1652,-216.991 2354.1652,-216.9909"/>
</g>
<!-- AppService -->
<g id="node10" class="node">
<title>AppService</title>
<ellipse fill="#fdb462" stroke="#000000" cx="2205" cy="-180" rx="56.7406" ry="18"/>
<text text-anchor="middle" x="2205" y="-175.8" font-family="Times,serif" font-size="14.00" fill="#000000">AppService</text>
</g>
<!-- AppService&#45;&gt;AppModule -->
<g id="edge8" class="edge">
<title>AppService&#45;&gt;AppModule</title>
<path fill="none" stroke="#000000" d="M2205,-198.1061C2205,-217.3391 2205,-245 2205,-245 2205,-245 2331.2669,-245 2331.2669,-245"/>
<polygon fill="#000000" stroke="#000000" points="2331.2669,-248.5001 2341.2669,-245 2331.2669,-241.5001 2331.2669,-248.5001"/>
</g>
<!-- BlogOverviewComponent -->
<g id="node11" class="node">
<title>BlogOverviewComponent</title>
<polygon fill="#ffffb3" stroke="#000000" points="1484.7534,-122 1321.2466,-122 1321.2466,-86 1484.7534,-86 1484.7534,-122"/>
<text text-anchor="middle" x="1403" y="-99.8" font-family="Times,serif" font-size="14.00" fill="#000000">BlogOverviewComponent</text>
</g>
<!-- BlogOverviewComponent&#45;&gt;BlogModule -->
<g id="edge9" class="edge">
<title>BlogOverviewComponent&#45;&gt;BlogModule</title>
<path fill="none" stroke="#000000" d="M1403,-122.0267C1403,-142.7672 1403,-174 1403,-174 1403,-174 1209.3068,-174 1209.3068,-174"/>
<polygon fill="#000000" stroke="#000000" points="1209.3068,-170.5001 1199.3068,-174 1209.3067,-177.5001 1209.3068,-170.5001"/>
</g>
<!-- BlogPostComponent -->
<g id="node12" class="node">
<title>BlogPostComponent</title>
<polygon fill="#ffffb3" stroke="#000000" points="1303.1778,-122 1170.8222,-122 1170.8222,-86 1303.1778,-86 1303.1778,-122"/>
<text text-anchor="middle" x="1237" y="-99.8" font-family="Times,serif" font-size="14.00" fill="#000000">BlogPostComponent</text>
</g>
<!-- BlogPostComponent&#45;&gt;BlogModule -->
<g id="edge10" class="edge">
<title>BlogPostComponent&#45;&gt;BlogModule</title>
<path fill="none" stroke="#000000" d="M1185.0249,-122.0109C1185.0249,-122.0109 1185.0249,-151.855 1185.0249,-151.855"/>
<polygon fill="#000000" stroke="#000000" points="1181.525,-151.8549 1185.0249,-161.855 1188.525,-151.855 1181.525,-151.8549"/>
</g>
<!-- BlogPreviewComponent -->
<g id="node13" class="node">
<title>BlogPreviewComponent</title>
<polygon fill="#ffffb3" stroke="#000000" points="1152.4298,-122 997.5702,-122 997.5702,-86 1152.4298,-86 1152.4298,-122"/>
<text text-anchor="middle" x="1075" y="-99.8" font-family="Times,serif" font-size="14.00" fill="#000000">BlogPreviewComponent</text>
</g>
<!-- BlogPreviewComponent&#45;&gt;BlogModule -->
<g id="edge11" class="edge">
<title>BlogPreviewComponent&#45;&gt;BlogModule</title>
<path fill="none" stroke="#000000" d="M1139.0136,-122.0109C1139.0136,-122.0109 1139.0136,-151.855 1139.0136,-151.855"/>
<polygon fill="#000000" stroke="#000000" points="1135.5137,-151.8549 1139.0136,-161.855 1142.5137,-151.855 1135.5137,-151.8549"/>
</g>
<!-- ErrorInterceptor -->
<g id="node15" class="node">
<title>ErrorInterceptor</title>
<ellipse fill="#fdb462" stroke="#000000" cx="2436" cy="-104" rx="73.5329" ry="18"/>
<text text-anchor="middle" x="2436" y="-99.8" font-family="Times,serif" font-size="14.00" fill="#000000">ErrorInterceptor</text>
</g>
<!-- ErrorInterceptor&#45;&gt;CoreModule -->
<g id="edge13" class="edge">
<title>ErrorInterceptor&#45;&gt;CoreModule</title>
<path fill="none" stroke="#000000" d="M2436,-122.0109C2436,-122.0109 2436,-151.855 2436,-151.855"/>
<polygon fill="#000000" stroke="#000000" points="2432.5001,-151.8549 2436,-161.855 2439.5001,-151.855 2432.5001,-151.8549"/>
</g>
<!-- DashboardLayoutComponent -->
<g id="node16" class="node">
<title>DashboardLayoutComponent</title>
<polygon fill="#ffffb3" stroke="#000000" points="957.6316,-122 776.3684,-122 776.3684,-86 957.6316,-86 957.6316,-122"/>
<text text-anchor="middle" x="867" y="-99.8" font-family="Times,serif" font-size="14.00" fill="#000000">DashboardLayoutComponent</text>
</g>
<!-- DashboardLayoutComponent&#45;&gt;DashboardModule -->
<g id="edge14" class="edge">
<title>DashboardLayoutComponent&#45;&gt;DashboardModule</title>
<path fill="none" stroke="#000000" d="M867,-122.1985C867,-146.3563 867,-186 867,-186 867,-186 620.3714,-186 620.3714,-186"/>
<polygon fill="#000000" stroke="#000000" points="620.3715,-182.5001 610.3714,-186 620.3714,-189.5001 620.3715,-182.5001"/>
</g>
<!-- HeaderComponent -->
<g id="node17" class="node">
<title>HeaderComponent</title>
<polygon fill="#ffffb3" stroke="#000000" points="757.7437,-122 636.2563,-122 636.2563,-86 757.7437,-86 757.7437,-122"/>
<text text-anchor="middle" x="697" y="-99.8" font-family="Times,serif" font-size="14.00" fill="#000000">HeaderComponent</text>
</g>
<!-- HeaderComponent&#45;&gt;DashboardModule -->
<g id="edge16" class="edge">
<title>HeaderComponent&#45;&gt;DashboardModule</title>
<path fill="none" stroke="#000000" d="M697,-122.0267C697,-142.7672 697,-174 697,-174 697,-174 620.2147,-174 620.2147,-174"/>
<polygon fill="#000000" stroke="#000000" points="620.2147,-170.5001 610.2147,-174 620.2146,-177.5001 620.2147,-170.5001"/>
</g>
<!-- OverviewComponent -->
<g id="node18" class="node">
<title>OverviewComponent</title>
<polygon fill="#ffffb3" stroke="#000000" points="618.0268,-122 481.9732,-122 481.9732,-86 618.0268,-86 618.0268,-122"/>
<text text-anchor="middle" x="550" y="-99.8" font-family="Times,serif" font-size="14.00" fill="#000000">OverviewComponent</text>
</g>
<!-- OverviewComponent&#45;&gt;DashboardModule -->
<g id="edge17" class="edge">
<title>OverviewComponent&#45;&gt;DashboardModule</title>
<path fill="none" stroke="#000000" d="M550,-122.0109C550,-122.0109 550,-151.855 550,-151.855"/>
<polygon fill="#000000" stroke="#000000" points="546.5001,-151.8549 550,-161.855 553.5001,-151.855 546.5001,-151.8549"/>
</g>
<!-- CallbackComponent -->
<g id="node20" class="node">
<title>CallbackComponent</title>
<polygon fill="#ffffb3" stroke="#000000" points="1829.594,-122 1698.406,-122 1698.406,-86 1829.594,-86 1829.594,-122"/>
<text text-anchor="middle" x="1764" y="-99.8" font-family="Times,serif" font-size="14.00" fill="#000000">CallbackComponent</text>
</g>
<!-- CallbackComponent&#45;&gt;HomeModule -->
<g id="edge19" class="edge">
<title>CallbackComponent&#45;&gt;HomeModule</title>
<path fill="none" stroke="#000000" d="M1779.6269,-122.0109C1779.6269,-122.0109 1779.6269,-151.855 1779.6269,-151.855"/>
<polygon fill="#000000" stroke="#000000" points="1776.127,-151.8549 1779.6269,-161.855 1783.127,-151.855 1776.127,-151.8549"/>
</g>
<!-- HomeLayoutComponent -->
<g id="node21" class="node">
<title>HomeLayoutComponent</title>
<polygon fill="#ffffb3" stroke="#000000" points="1680.7021,-122 1525.2979,-122 1525.2979,-86 1680.7021,-86 1680.7021,-122"/>
<text text-anchor="middle" x="1603" y="-99.8" font-family="Times,serif" font-size="14.00" fill="#000000">HomeLayoutComponent</text>
</g>
<!-- HomeLayoutComponent&#45;&gt;HomeModule -->
<g id="edge20" class="edge">
<title>HomeLayoutComponent&#45;&gt;HomeModule</title>
<path fill="none" stroke="#000000" d="M1603,-122.1985C1603,-146.3563 1603,-186 1603,-186 1603,-186 1706.9993,-186 1706.9993,-186"/>
<polygon fill="#000000" stroke="#000000" points="1706.9994,-189.5001 1716.9993,-186 1706.9993,-182.5001 1706.9994,-189.5001"/>
</g>
<!-- LandingComponent -->
<g id="node22" class="node">
<title>LandingComponent</title>
<polygon fill="#ffffb3" stroke="#000000" points="2107.9902,-122 1980.0098,-122 1980.0098,-86 2107.9902,-86 2107.9902,-122"/>
<text text-anchor="middle" x="2044" y="-99.8" font-family="Times,serif" font-size="14.00" fill="#000000">LandingComponent</text>
</g>
<!-- LandingComponent&#45;&gt;HomeModule -->
<g id="edge21" class="edge">
<title>LandingComponent&#45;&gt;HomeModule</title>
<path fill="none" stroke="#000000" d="M2044,-122.1985C2044,-146.3563 2044,-186 2044,-186 2044,-186 1820.8657,-186 1820.8657,-186"/>
<polygon fill="#000000" stroke="#000000" points="1820.8657,-182.5001 1810.8657,-186 1820.8657,-189.5001 1820.8657,-182.5001"/>
</g>
<!-- LoginComponent -->
<g id="node23" class="node">
<title>LoginComponent</title>
<polygon fill="#ffffb3" stroke="#000000" points="1962.2758,-122 1847.7242,-122 1847.7242,-86 1962.2758,-86 1962.2758,-122"/>
<text text-anchor="middle" x="1905" y="-99.8" font-family="Times,serif" font-size="14.00" fill="#000000">LoginComponent</text>
</g>
<!-- LoginComponent&#45;&gt;HomeModule -->
<g id="edge22" class="edge">
<title>LoginComponent&#45;&gt;HomeModule</title>
<path fill="none" stroke="#000000" d="M1905,-122.0267C1905,-142.7672 1905,-174 1905,-174 1905,-174 1820.951,-174 1820.951,-174"/>
<polygon fill="#000000" stroke="#000000" points="1820.951,-170.5001 1810.951,-174 1820.9509,-177.5001 1820.951,-170.5001"/>
</g>
<!-- NotFoundComponent -->
<g id="node25" class="node">
<title>NotFoundComponent</title>
<polygon fill="#ffffb3" stroke="#000000" points="2787.1122,-122 2648.8878,-122 2648.8878,-86 2787.1122,-86 2787.1122,-122"/>
<text text-anchor="middle" x="2718" y="-99.8" font-family="Times,serif" font-size="14.00" fill="#000000">NotFoundComponent</text>
</g>
<!-- NotFoundModule -->
<g id="node26" class="node">
<title>NotFoundModule</title>
<polygon fill="#8dd3c7" stroke="#000000" points="2776.3301,-198 2773.3301,-202 2752.3301,-202 2749.3301,-198 2659.6699,-198 2659.6699,-162 2776.3301,-162 2776.3301,-198"/>
<text text-anchor="middle" x="2718" y="-175.8" font-family="Times,serif" font-size="14.00" fill="#000000">NotFoundModule</text>
</g>
<!-- NotFoundComponent&#45;&gt;NotFoundModule -->
<g id="edge24" class="edge">
<title>NotFoundComponent&#45;&gt;NotFoundModule</title>
<path fill="none" stroke="#000000" d="M2718,-122.0109C2718,-122.0109 2718,-151.855 2718,-151.855"/>
<polygon fill="#000000" stroke="#000000" points="2714.5001,-151.8549 2718,-161.855 2721.5001,-151.855 2714.5001,-151.8549"/>
</g>
</g>
</svg>
