<?xml version="1.0" encoding="UTF-8" standalone="no"?>
<!DOCTYPE svg PUBLIC "-//W3C//DTD SVG 1.1//EN"
 "http://www.w3.org/Graphics/SVG/1.1/DTD/svg11.dtd">
<!-- Generated by graphviz version 2.40.1 (20161225.0304)
 -->
<!-- Title: dependencies Pages: 1 -->
<svg width="665pt" height="211pt"
 viewBox="0.00 0.00 665.00 211.00" xmlns="http://www.w3.org/2000/svg" xmlns:xlink="http://www.w3.org/1999/xlink">
<g id="graph0" class="graph" transform="scale(1 1) rotate(0) translate(4 207)">
<title>dependencies</title>
<polygon fill="#ffffff" stroke="transparent" points="-4,4 -4,-207 661,-207 661,4 -4,4"/>
<text text-anchor="start" x="307.5091" y="-42.4" font-family="sans-serif" font-weight="bold" font-size="14.00" fill="#000000">Legend</text>
<polygon fill="#ffffb3" stroke="transparent" points="94.5,-10 94.5,-30 114.5,-30 114.5,-10 94.5,-10"/>
<text text-anchor="start" x="118.129" y="-15.4" font-family="sans-serif" font-size="14.00" fill="#000000"> &#160;Declarations</text>
<polygon fill="#8dd3c7" stroke="transparent" points="207.5,-10 207.5,-30 227.5,-30 227.5,-10 207.5,-10"/>
<text text-anchor="start" x="231.2251" y="-15.4" font-family="sans-serif" font-size="14.00" fill="#000000"> &#160;Module</text>
<polygon fill="#80b1d3" stroke="transparent" points="293.5,-10 293.5,-30 313.5,-30 313.5,-10 293.5,-10"/>
<text text-anchor="start" x="317.2812" y="-15.4" font-family="sans-serif" font-size="14.00" fill="#000000"> &#160;Bootstrap</text>
<polygon fill="#fdb462" stroke="transparent" points="390.5,-10 390.5,-30 410.5,-30 410.5,-10 390.5,-10"/>
<text text-anchor="start" x="414.1732" y="-15.4" font-family="sans-serif" font-size="14.00" fill="#000000"> &#160;Providers</text>
<polygon fill="#fb8072" stroke="transparent" points="486.5,-10 486.5,-30 506.5,-30 506.5,-10 486.5,-10"/>
<text text-anchor="start" x="510.2258" y="-15.4" font-family="sans-serif" font-size="14.00" fill="#000000"> &#160;Exports</text>
<g id="clust1" class="cluster">
<title>cluster_BlogModule</title>
<polygon fill="none" stroke="#000000" stroke-dasharray="1,5" points="8,-70 8,-195 649,-195 649,-70 8,-70"/>
</g>
<g id="clust2" class="cluster">
<title>cluster_BlogModule_declarations</title>
<polygon fill="none" stroke="#000000" points="138,-78 138,-130 641,-130 641,-78 138,-78"/>
</g>
<g id="clust6" class="cluster">
<title>cluster_BlogModule_imports</title>
<polygon fill="none" stroke="#000000" points="16,-78 16,-130 130,-130 130,-78 16,-78"/>
</g>
<!-- BlogOverviewComponent -->
<g id="node1" class="node">
<title>BlogOverviewComponent</title>
<polygon fill="#ffffb3" stroke="#000000" points="632.7534,-122 469.2466,-122 469.2466,-86 632.7534,-86 632.7534,-122"/>
<text text-anchor="middle" x="551" y="-99.8" font-family="Times,serif" font-size="14.00" fill="#000000">BlogOverviewComponent</text>
</g>
<!-- BlogModule -->
<g id="node4" class="node">
<title>BlogModule</title>
<polygon fill="#8dd3c7" stroke="#000000" points="347.2773,-187 344.2773,-191 323.2773,-191 320.2773,-187 260.7227,-187 260.7227,-151 347.2773,-151 347.2773,-187"/>
<text text-anchor="middle" x="304" y="-164.8" font-family="Times,serif" font-size="14.00" fill="#000000">BlogModule</text>
</g>
<!-- BlogOverviewComponent&#45;&gt;BlogModule -->
<g id="edge1" class="edge">
<title>BlogOverviewComponent&#45;&gt;BlogModule</title>
<path fill="none" stroke="#000000" d="M551,-122.1061C551,-141.3391 551,-169 551,-169 551,-169 357.3068,-169 357.3068,-169"/>
<polygon fill="#000000" stroke="#000000" points="357.3068,-165.5001 347.3068,-169 357.3067,-172.5001 357.3068,-165.5001"/>
</g>
<!-- BlogPostComponent -->
<g id="node2" class="node">
<title>BlogPostComponent</title>
<polygon fill="#ffffb3" stroke="#000000" points="451.1778,-122 318.8222,-122 318.8222,-86 451.1778,-86 451.1778,-122"/>
<text text-anchor="middle" x="385" y="-99.8" font-family="Times,serif" font-size="14.00" fill="#000000">BlogPostComponent</text>
</g>
<!-- BlogPostComponent&#45;&gt;BlogModule -->
<g id="edge2" class="edge">
<title>BlogPostComponent&#45;&gt;BlogModule</title>
<path fill="none" stroke="#000000" d="M333.0249,-122.1061C333.0249,-122.1061 333.0249,-140.991 333.0249,-140.991"/>
<polygon fill="#000000" stroke="#000000" points="329.525,-140.9909 333.0249,-150.991 336.525,-140.991 329.525,-140.9909"/>
</g>
<!-- BlogPreviewComponent -->
<g id="node3" class="node">
<title>BlogPreviewComponent</title>
<polygon fill="#ffffb3" stroke="#000000" points="300.4298,-122 145.5702,-122 145.5702,-86 300.4298,-86 300.4298,-122"/>
<text text-anchor="middle" x="223" y="-99.8" font-family="Times,serif" font-size="14.00" fill="#000000">BlogPreviewComponent</text>
</g>
<!-- BlogPreviewComponent&#45;&gt;BlogModule -->
<g id="edge3" class="edge">
<title>BlogPreviewComponent&#45;&gt;BlogModule</title>
<path fill="none" stroke="#000000" d="M280.4131,-122.1061C280.4131,-122.1061 280.4131,-140.991 280.4131,-140.991"/>
<polygon fill="#000000" stroke="#000000" points="276.9131,-140.9909 280.4131,-150.991 283.9131,-140.991 276.9131,-140.9909"/>
</g>
<!-- SharedModule -->
<g id="node5" class="node">
<title>SharedModule</title>
<polygon fill="#8dd3c7" stroke="#000000" points="122.4231,-122 119.4231,-126 98.4231,-126 95.4231,-122 23.5769,-122 23.5769,-86 122.4231,-86 122.4231,-122"/>
<text text-anchor="middle" x="73" y="-99.8" font-family="Times,serif" font-size="14.00" fill="#000000">SharedModule</text>
</g>
<!-- SharedModule&#45;&gt;BlogModule -->
<g id="edge4" class="edge">
<title>SharedModule&#45;&gt;BlogModule</title>
<path fill="none" stroke="#000000" d="M73,-122.1061C73,-141.3391 73,-169 73,-169 73,-169 250.5507,-169 250.5507,-169"/>
<polygon fill="#000000" stroke="#000000" points="250.5507,-172.5001 260.5507,-169 250.5506,-165.5001 250.5507,-172.5001"/>
</g>
</g>
</svg>
